#!OML:ASF F:\VICON\USERDATA\INSTALL\rory3\rory3.ASF
:FULLY-SPECIFIED
:DEGREES
446
root 4.56804 16.3018 2.27713 16.2857 -9.03818 -0.181988
lowerback 6.75825 -0.815706 0.147791
upperback 1.88248 -1.08605 -0.442564
thorax -1.85877 -0.542228 -0.448658
lowerneck -14.5164 -0.542733 -2.3793
upperneck 35.866 0.0617006 -0.698063
head 14.8762 -0.441232 0.12894
rclavicle -1.59028e-015 -5.1684e-015
rhumerus -43.7333 39.6157 -76.206
rradius 88.8215
rwrist -28.2022
rhand -5.44855 -40.3344
rfingers 7.12502
rthumb 20.3624 -69.2869
lclavicle -1.59028e-015 -5.1684e-015
lhumerus -29.0174 -44.5444 68.8659
lradius 80.1702
lwrist 51.2973
lhand -15.0388 -22.2348
lfingers 7.12502
lthumb 11.1274 7.45017
rfemur -66.622 -2.5622 20.724
rtibia 34.401
rfoot 37.4681 -3.20688
rtoes 7.47377
lfemur -43.5389 -2.71571 -29.2122
ltibia 51.3927
lfoot -22.3929 7.97718
ltoes 13.951
447
root 4.57348 16.2903 2.27484 16.7525 -9.22167 -0.21007
lowerback 6.5989 -0.794184 0.192048
upperback 1.69883 -1.05473 -0.43664
thorax -1.95953 -0.527062 -0.470681
lowerneck -14.4838 -0.516327 -2.27993
upperneck 35.93 0.0962656 -0.77739
head 14.8985 -0.425347 0.0837162
rclavicle -2.98177e-016 1.49089e-014
rhumerus -44.3989 39.9088 -76.1349
rradius 88.6411
rwrist -28.3741
rhand -6.91855 -38.4784
rfingers 7.12502
rthumb 18.9492 -67.5754
lclavicle -2.98177e-016 1.49089e-014
lhumerus -29.7165 -44.791 68.6888
lradius 79.9984
lwrist 51.2
lhand -15.5105 -23.1843
lfingers 7.12502
lthumb 10.6723 6.52463
rfemur -67.2185 -2.59551 20.9184
rtibia 34.4482
rfoot 37.5524 -3.29008
rtoes 7.81353
lfemur -44.179 -2.65752 -29.2394
ltibia 51.5958
lfoot -22.4592 7.95635
ltoes 14.0596
448
root 4.57901 16.2831 2.27838 17.0977 -9.32822 -0.237481
lowerback 6.42466 -0.75468 0.310115
upperback 1.57069 -0.994395 -0.418901
thorax -1.99545 -0.497685 -0.52495
lowerneck -14.4222 -0.591126 -2.44547
upperneck 36.0589 0.00866799 -0.70726
head 14.9472 -0.476716 0.127247
rclavicle -1.17283e-014 -6.16232e-015
rhumerus -45.073 40.161 -76.032
rradius 88.453
rwrist -28.783
rhand -6.16142 -40.096
rfingers 7.12502
rthumb 19.6772 -69.1201
lclavicle -1.17283e-014 -6.16232e-015
lhumerus -30.5023 -45.0645 68.7201
lradius 79.859
lwrist 51.0106
lhand -15.4046 -23.5331
lfingers 7.12502
lthumb 10.7745 6.17061
rfemur -67.6622 -2.7259 21.1513
rtibia 34.5093
rfoot 37.7165 -2.71474
rtoes 7.17064
lfemur -44.629 -2.65409 -29.2505
ltibia 51.7679
lfoot -22.5337 7.96669
ltoes 13.9845
449
root 4.58028 16.2778 2.28407 17.2305 -9.34677 -0.330101
lowerback 6.43005 -0.736152 0.462868
upperback 1.59681 -0.958377 -0.35924
thorax -1.9726 -0.480203 -0.552367
lowerneck -14.3748 -0.66749 -2.78166
upperneck 35.9813 -0.0872943 -0.476488
head 14.9016 -0.529786 0.267533
rclavicle -4.11484e-014 -3.77691e-015
rhumerus -45.5033 40.2906 -75.7415
rradius 88.299
rwrist -29.0894
rhand -6.17705 -40.697
rfingers 7.12502
rthumb 19.6621 -69.7227
lclavicle -4.11484e-014 -3.77691e-015
lhumerus -31.1732 -45.2406 68.72
lradius 79.6955
lwrist 50.7352
lhand -15.0097 -22.9897
lfingers 7.12502
lthumb 11.1554 6.69375
rfemur -67.8326 -2.73641 21.3004
rtibia 34.5632
rfoot 37.7888 -2.27883
rtoes 6.35805
lfemur -44.8125 -2.58702 -29.1779
ltibia 51.9098
lfoot -22.6014 7.94653
ltoes 13.879
450
root 4.58219 16.2737 2.28943 17.3321 -9.37962 -0.404618
lowerback 6.44763 -0.721726 0.584598
upperback 1.65436 -0.930108 -0.309451
thorax -1.92387 -0.466286 -0.571984
lowerneck -14.4009 -0.685554 -2.88582
upperneck 35.8777 -0.0978435 -0.429916
head 14.8592 -0.540122 0.303944
rclavicle -7.95139e-015 -1.64991e-014
rhumerus -45.9117 40.3262 -75.3817
rradius 88.2245
rwrist -29.213
rhand -6.10333 -40.5489
rfingers 7.12502
rthumb 19.733 -69.5673
lclavicle -7.95139e-015 -1.64991e-014
lhumerus -31.6661 -45.3953 68.5621
lradius 79.4916
lwrist 50.7402
lhand -14.8214 -22.5247
lfingers 7.12502
lthumb 11.337 7.14886
rfemur -67.971 -2.75699 21.4482
rtibia 34.5928
rfoot 36.954 -2.22667
rtoes 3.61475
lfemur -44.955 -2.44785 -29.1468
ltibia 52.0092
lfoot -22.6732 7.86852
ltoes 13.6598
451
root 4.5834 16.27 2.29379 17.4697 -9.50703 -0.437458
lowerback 6.40833 -0.671283 0.627278
upperback 1.67826 -0.860336 -0.295021
thorax -1.87677 -0.431511 -0.587332
lowerneck -14.307 -0.681013 -2.76225
upperneck 35.7063 -0.0852657 -0.562279
head 14.7558 -0.533298 0.230139
rclavicle -2.98177e-015 1.37161e-014
rhumerus -46.3179 40.3826 -75.0592
rradius 88.1007
rwrist -29.2594
rhand -5.85689 -40.2984
rfingers 7.12502
rthumb 19.9699 -69.2923
lclavicle -2.98177e-015 1.37161e-014
lhumerus -31.9599 -45.7468 68.2306
lradius 79.2577
lwrist 51.0491
lhand -15.2412 -23.0821
lfingers 7.12502
lthumb 10.9321 6.6133
rfemur -68.1565 -2.719 21.561
rtibia 34.6055
rfoot 38.0371 -1.80296
rtoes 6.48847
lfemur -45.1347 -2.24878 -29.1792
ltibia 52.0682
lfoot -22.7207 7.79615
ltoes 13.5961
452
root 4.58509 16.2683 2.29477 17.5867 -9.60279 -0.467701
lowerback 6.41105 -0.629962 0.694652
upperback 1.75985 -0.801928 -0.321889
thorax -1.79474 -0.40216 -0.657918
lowerneck -14.1582 -0.685148 -2.64598
upperneck 35.3747 -0.139227 -0.549205
head 14.5656 -0.533813 0.207888
rclavicle -6.85807e-015 -2.68359e-014
rhumerus -46.5047 40.4441 -74.7627
rradius 87.8555
rwrist -29.3332
rhand -6.34765 -39.9813
rfingers 7.12502
rthumb 19.4981 -69.0236
lclavicle -6.85807e-015 -2.68359e-014
lhumerus -32.0365 -46.1475 67.7424
lradius 78.9777
lwrist 51.3344
lhand -15.6532 -23.5173
lfingers 7.12502
lthumb 10.5347 6.19865
rfemur -68.3128 -2.69788 21.6598
rtibia 34.6289
rfoot 37.0508 -1.5925
rtoes 3.69173
lfemur -45.2915 -2.11681 -29.1971
ltibia 52.1181
lfoot -22.7411 7.71036
ltoes 13.8259
453
root 4.59425 16.2741 2.29914 17.6384 -9.49367 -0.49427
lowerback 6.36237 -0.677895 0.971389
upperback 1.90561 -0.849934 -0.37853
thorax -1.62327 -0.425267 -0.86927
lowerneck -14.4847 -0.650176 -2.41156
upperneck 35.5806 -0.117451 -0.628342
head 14.7356 -0.506818 0.135642
rclavicle -1.80894e-014 8.74653e-015
rhumerus -46.6412 40.4953 -74.515
rradius 87.5107
rwrist -29.2792
rhand -6.87016 -39.6338
rfingers 7.12502
rthumb 18.9957 -68.7262
lclavicle -1.80894e-014 8.74653e-015
lhumerus -32.0759 -46.4133 67.1951
lradius 78.6723
lwrist 51.4015
lhand -15.2215 -22.8518
lfingers 7.12502
lthumb 10.9511 6.84264
rfemur -68.3718 -3.02349 21.8963
rtibia 34.6915
rfoot 37.9392 -1.36966
rtoes 6.77909
lfemur -45.2835 -2.16424 -29.2125
ltibia 52.1412
lfoot -22.8008 7.64155
ltoes 13.8198
